<svg xmlns="http://www.w3.org/2000/svg" version="1.1" xmlns:xlink="http://www.w3.org/1999/xlink" xmlns:svgjs="http://svgjs.com/svgjs" width="552.66" height="541.25"><svg xmlns="http://www.w3.org/2000/svg" viewBox="0 0 552.66 541.25"><defs><style>.a,.b{fill:#091a30;}.a{fill-rule:evenodd;}</style></defs><path class="a" d="M336.54,240.14c-.48,1.14-3.51,68.11-3.51,76.85,0,3.32-1.52,2.28-2.76-2.09a18.66,18.66,0,0,0-2.75-5.7c-.55-.62-61.37-1-133.24-1.09-200.58-.38,131,1.84,131.53,2.32s2.37,4.47,3.89,8.74,3.33,7.7,3.8,7.6c.76-.19,2.56-31,3.32-56.71.29-10.54,1.62-2.56,3,17.29.86,12.44,1.71,19.66,2.47,20.42s3.42,1.43,6.08,1.71c4.37.38,5.23.86,7.22,3.8,1.24,1.81,2.57,3.42,3.14,3.61s.85-2.75.85-6.84.38-7.22.95-7.22.95.57.95,1.33,1.14,2.28,2.47,3.33c2.09,1.61,3.9,2,10.45,2,6.74,0,8.07.29,8.83,1.81,1.05,1.9,2.47,18,3.52,39.23.47,10.07.95,13.11,1.9,13.11s1.33-1.43,1.33-5c0-2.66.85-21.66,1.9-42s1.9-38.47,1.9-40.18.38-3,.76-3,1.52,5.7,2.47,12.54c2.37,17.85,3.13,20.51,6.36,22.13s31.25,2.09,31.25.47c0-.57-5.51-.95-14.72-.95-13.49,0-14.91-.19-16.62-1.9a7.14,7.14,0,0,1-1.9-2.66c0-.38-1.52-10.63-3.33-22.89s-3.32-22.22-3.32-22.51-.38-.38-.76-.38c-.86,0-1.14,3.89-3.52,50.34-.76,14.92-1.42,28.12-1.52,29.45-.28,5-1.61-3.23-1.71-10.92-.19-9.88-1.42-15.77-3.51-17.29-1.05-.76-4.56-1.24-9.31-1.24-4.27,0-8.17-.38-8.74-.76-1.9-1.23-2.94-4.37-3.61-10.64-.85-7.78-1.52-10.44-2.56-10.44-.48,0-.86,3.8-.86,8.45s-.28,10.35-.57,12.73l-.66,4.37-2.38-1.81a10.38,10.38,0,0,0-6.55-1.9c-3.42,0-4.28-.38-5-2.18-.47-1.14-1.71-15.1-2.85-31.06C338.63,245.46,337.58,237.39,336.54,240.14Z" transform="translate(-15.34 -19.46)"></path><circle class="b" cx="412" cy="56.89" r="46.28"></circle><path class="b" d="M131.16,134.17c-21.34,1.59-37.28,5.65-52.38,13.27a106.4,106.4,0,0,0-29.62,21.89,124.57,124.57,0,0,0-32.92,65.31c-1.19,7-1.19,24.41,0,33.18,4.55,33.67,19.26,66.74,44.61,100.51,6.78,9,11.83,15.06,30,35.9,33.37,38.28,50.41,56.95,67.79,74.28,28.22,28.17,48.27,53.87,59.56,76.4,1.69,3.32,3.27,5.8,3.67,5.8.94,0,.94-8-.05-14.61-4.66-31-22.33-63.09-54-98.29-54.52-60.66-96.07-132.75-103-178.76-1.19-8-1.48-29.85-.49-37.43,2.47-18.91,9.11-32.43,22.13-45Q105.65,168,128.54,163c5.84-1.24,21.79-1.78,28.37-.94,20.6,2.62,40.51,10.74,56.1,22.83,10.75,8.27,20.55,20.2,25.16,30.55a9.77,9.77,0,0,0,1.48,2.62c.5,0-.29-6.83-1.53-13.12A96,96,0,0,0,225,172.65a78.58,78.58,0,0,0-31.45-27.58c-10.2-5-21.09-8.22-34.16-10C153.64,134.37,136.26,133.78,131.16,134.17Z" transform="translate(-15.34 -19.46)"></path><path class="b" d="M249.22,221.11s33-98.67,114.77-97.55c0,0,67.38,26.47,86.45,26.65,0,0,24.07,2.78,41.47-32,0,0,24.43-51.41-4.26-98.73,0,0,63.31,61,77.56,147.41,0,0,9.56,90.89-6.73,128.65,0,0-29.12,89.35-91.07,126.13,0,0-46.4,32.08-65.65,38.75l-75.53,35.79s-76.27,41-87.13,62.19c0,0,39.49-70.34,90.34-110.08,0,0,23.2-19.25,30.11-20.73,0,0,42.7-26.16,51.83-40,0,0,38.75-37.52,55.29-90.83,0,0,10.12-27.15-4.69-58.25,0,0-15.3-29.86-31.35-44.67,0,0-28.63-26.41-51.33-26.66,0,0-28.14-6.91-61.71,8.89C317.59,176.07,281.56,190.63,249.22,221.11Z" transform="translate(-15.34 -19.46)"></path></svg><style>@media (prefers-color-scheme: light) { :root { filter: none; } }
</style></svg>