<?xml version="1.0" encoding="utf-8"?>
<!-- Generator: Adobe Illustrator 25.2.0, SVG Export Plug-In . SVG Version: 6.00 Build 0)  -->
<svg version="1.1" id="Layer_1" focusable="false" xmlns="http://www.w3.org/2000/svg" xmlns:xlink="http://www.w3.org/1999/xlink"
	 x="0px" y="0px" viewBox="0 0 512 512" style="enable-background:new 0 0 512 512;" xml:space="preserve">
<style type="text/css">
	.st0{fill:#82B440;}
</style>
<path class="st0" d="M448,64h-26c16.4,28.3,26,61,26,96c0,105.9-86.1,192-192,192S64,265.9,64,160c0-35,9.6-67.7,26-96H64
	C28.7,64,0,92.7,0,128v320c0,35.3,28.7,64,64,64h384c35.3,0,64-28.7,64-64V128C512,92.7,483.3,64,448,64z M256,320
	c88.4,0,160-71.6,160-160S344.4,0,256,0S96,71.6,96,160S167.6,320,256,320z M255.7,168.1l33.6-78.4c3.5-8.2,12.9-11.9,21-8.4
	c8.1,3.5,11.9,12.9,8.4,21L285,180.8c6.7,7.2,11,16.6,11,27.2c0,22.1-17.9,40-40,40s-40-17.9-40-40C216,186,233.8,168.2,255.7,168.1
	z"/>
</svg>
